<svg xmlns="http://www.w3.org/2000/svg" viewBox="0 0 32 32" width="32" height="32" shape-rendering="crispEdges">
  <rect width="32" height="32" rx="6" fill="#09070c"/>
  <g transform="translate(10,4) scale(1.7)">
<rect x="0" y="-1" width="1" height="1" fill="#1a0a04"/><rect x="0" y="0" width="2" height="1" fill="#1a0a04"/><rect x="0" y="1" width="3" height="1" fill="#1a0a04"/><rect x="0" y="2" width="4" height="1" fill="#1a0a04"/><rect x="0" y="3" width="5" height="1" fill="#1a0a04"/><rect x="0" y="4" width="6" height="1" fill="#1a0a04"/><rect x="0" y="5" width="7" height="1" fill="#1a0a04"/><rect x="0" y="6" width="8" height="1" fill="#1a0a04"/><rect x="0" y="7" width="9" height="1" fill="#1a0a04"/><rect x="0" y="8" width="4" height="1" fill="#1a0a04"/><rect x="1" y="9" width="4" height="1" fill="#1a0a04"/><rect x="2" y="10" width="4" height="1" fill="#1a0a04"/><rect x="3" y="11" width="4" height="1" fill="#1a0a04"/><rect x="4" y="12" width="3" height="1" fill="#1a0a04"/><rect x="0" y="1" width="1" height="1" fill="#1a0a04"/><rect x="0" y="2" width="2" height="1" fill="#1a0a04"/><rect x="0" y="3" width="3" height="1" fill="#1a0a04"/><rect x="0" y="4" width="4" height="1" fill="#1a0a04"/><rect x="0" y="5" width="5" height="1" fill="#1a0a04"/><rect x="0" y="6" width="6" height="1" fill="#1a0a04"/><rect x="0" y="7" width="7" height="1" fill="#1a0a04"/><rect x="0" y="8" width="8" height="1" fill="#1a0a04"/><rect x="0" y="9" width="9" height="1" fill="#1a0a04"/><rect x="0" y="10" width="4" height="1" fill="#1a0a04"/><rect x="1" y="11" width="4" height="1" fill="#1a0a04"/><rect x="2" y="12" width="4" height="1" fill="#1a0a04"/><rect x="3" y="13" width="4" height="1" fill="#1a0a04"/><rect x="4" y="14" width="3" height="1" fill="#1a0a04"/><rect x="-1" y="0" width="1" height="1" fill="#1a0a04"/><rect x="-1" y="1" width="2" height="1" fill="#1a0a04"/><rect x="-1" y="2" width="3" height="1" fill="#1a0a04"/><rect x="-1" y="3" width="4" height="1" fill="#1a0a04"/><rect x="-1" y="4" width="5" height="1" fill="#1a0a04"/><rect x="-1" y="5" width="6" height="1" fill="#1a0a04"/><rect x="-1" y="6" width="7" height="1" fill="#1a0a04"/><rect x="-1" y="7" width="8" height="1" fill="#1a0a04"/><rect x="-1" y="8" width="9" height="1" fill="#1a0a04"/><rect x="-1" y="9" width="4" height="1" fill="#1a0a04"/><rect x="0" y="10" width="4" height="1" fill="#1a0a04"/><rect x="1" y="11" width="4" height="1" fill="#1a0a04"/><rect x="2" y="12" width="4" height="1" fill="#1a0a04"/><rect x="3" y="13" width="3" height="1" fill="#1a0a04"/><rect x="1" y="0" width="1" height="1" fill="#1a0a04"/><rect x="1" y="1" width="2" height="1" fill="#1a0a04"/><rect x="1" y="2" width="3" height="1" fill="#1a0a04"/><rect x="1" y="3" width="4" height="1" fill="#1a0a04"/><rect x="1" y="4" width="5" height="1" fill="#1a0a04"/><rect x="1" y="5" width="6" height="1" fill="#1a0a04"/><rect x="1" y="6" width="7" height="1" fill="#1a0a04"/><rect x="1" y="7" width="8" height="1" fill="#1a0a04"/><rect x="1" y="8" width="9" height="1" fill="#1a0a04"/><rect x="1" y="9" width="4" height="1" fill="#1a0a04"/><rect x="2" y="10" width="4" height="1" fill="#1a0a04"/><rect x="3" y="11" width="4" height="1" fill="#1a0a04"/><rect x="4" y="12" width="4" height="1" fill="#1a0a04"/><rect x="5" y="13" width="3" height="1" fill="#1a0a04"/><rect x="0" y="0" width="1" height="1" fill="#ff5c35"/><rect x="0" y="1" width="2" height="1" fill="#ff5c35"/><rect x="0" y="2" width="3" height="1" fill="#ff5c35"/><rect x="0" y="3" width="4" height="1" fill="#ff5c35"/><rect x="0" y="4" width="5" height="1" fill="#ff5c35"/><rect x="0" y="5" width="6" height="1" fill="#ff5c35"/><rect x="0" y="6" width="7" height="1" fill="#ff5c35"/><rect x="0" y="7" width="8" height="1" fill="#ff5c35"/><rect x="0" y="8" width="9" height="1" fill="#ff5c35"/><rect x="0" y="9" width="4" height="1" fill="#ff5c35"/><rect x="1" y="10" width="4" height="1" fill="#ff5c35"/><rect x="2" y="11" width="4" height="1" fill="#ff5c35"/><rect x="3" y="12" width="4" height="1" fill="#ff5c35"/><rect x="4" y="13" width="3" height="1" fill="#ff5c35"/>
  </g>
</svg>
